<mxfile host="app.diagrams.net" modified="2023-11-21T20:11:52.772Z" agent="Mozilla/5.0 (Macintosh; Intel Mac OS X 10_15_7) AppleWebKit/537.36 (KHTML, like Gecko) Chrome/118.0.0.0 Safari/537.36" version="22.1.3" etag="qQkevAG3JP3I1FPg-8TF" type="github">
  <diagram name="Pagina-1" id="CG3OLdO0vx5EQU4jVLVG">
    <mxGraphModel>
      <root>
        <mxCell id="0" />
        <mxCell id="1" parent="0" />
      </root>
    </mxGraphModel>
  </diagram>
</mxfile>
